# AST/ASF file generated using VICON BodyLanguage
# -----------------------------------------------
:version 1.10
:name VICON
:units
  mass 1.0
  length 0.45
  angle deg
:documentation
   .ast/.asf automatically generated from VICON data using
   VICON BodyBuilder and BodyLanguage model FoxedUp or BRILLIANT.MOD
:root
   order TX TY TZ RX RY RZ
   axis XYZ
   position 0 0 0  
   orientation 0 0 0 
:bonedata
  begin
     id 1 
     name lhipjoint
     direction 0.570549 -0.739093 0.358072 
     length 2.41801 
     axis 0 0 0  XYZ
  end
  begin
     id 2 
     name lfemur
     direction 0.34202 -0.939693 0  
     length 7.44434  
     axis 0 0 20  XYZ
    dof rx ry rz
    limits (-160.0 20.0)
           (-70.0 70.0)
           (-60.0 70.0)
  end
  begin
     id 3 
     name ltibia
     direction 0.34202 -0.939693 0   
     length 7.60047   
     axis 0 0 20   XYZ
    dof rx
    limits (-10.0 170.0)
  end
  begin
     id 4 
     name lfoot
     direction 0.0909041 -0.249757 0.964032   
     length 2.03437   
     axis -90 7.62852e-016 20   XYZ
    dof rx rz
    limits (-45.0 90.0)
           (-70.0 20.0)
  end
  begin
     id 5 
     name ltoes
     direction 1.53547e-011 -4.2174e-011 1   
     length 1.02054   
     axis -90 7.62852e-016 20   XYZ
    dof rx
    limits (-90.0 20.0)
  end
  begin
     id 6 
     name rhipjoint
     direction -0.558096 -0.746754 0.361784   
     length 2.3932  
     axis 0 0 0  XYZ 
  end
  begin
     id 7 
     name rfemur
     direction -0.34202 -0.939693 0   
     length 7.3886   
     axis 0 0 -20   XYZ
    dof rx ry rz
    limits (-160.0 20.0)
           (-70.0 70.0)
           (-70.0 60.0)
  end
  begin
     id 8 
     name rtibia
     direction -0.34202 -0.939693 0   
     length 7.4839   
     axis 0 0 -20   XYZ
    dof rx
    limits (-10.0 170.0)
 end
 begin
     id 9 
     name rfoot
     direction -0.114619 -0.314914 0.942174   
     length 2.25127  
     axis -90 -7.62852e-016 -20   XYZ
    dof rx rz
    limits (-45.0 90.0)
           (-20.0 70.0)
  end
  begin
     id 10 
     name rtoes
     direction -1.53518e-011 -4.21881e-011 1   
     length 1.11821   
     axis -90 -7.62852e-016 -20   XYZ
    dof rx
    limits (-90.0 20.0)
  end
  begin
     id 11 
     name lowerback
     direction -0.00902269 0.996426 -0.0839821   
     length 2.25052   
     axis 0 0 0   XYZ
    dof rx ry rz
    limits (-20.0 45.0)
           (-30.0 30.0)
           (-30.0 30.0)
  end
  begin
     id 12 
     name upperback
     direction 0.0370973 0.999169 -0.0168941   
     length 2.24876   
     axis 0 0 0   XYZ
    dof rx ry rz
    limits (-20.0 45.0)
           (-30.0 30.0)
           (-30.0 30.0)
  end
  begin
     id 13 
     name thorax
     direction 0.0402726 0.998931 0.0227027   
     length 2.26408   
     axis 0 0 0   XYZ
    dof rx ry rz
    limits (-20.0 45.0)
           (-30.0 30.0)
           (-30.0 30.0)
  end
  begin
     id 14 
     name lowerneck
     direction -0.0733697 0.98508 0.155675   
     length 1.58204   
     axis 0 0 0   XYZ
    dof rx ry rz
    limits (-20.0 45.0)
           (-30.0 30.0)
           (-30.0 30.0)
  end
  begin
     id 15 
     name upperneck
     direction 0.0426554 0.993501 -0.105526   
     length 1.61222   
     axis 0 0 0   XYZ
    dof rx ry rz
    limits (-20.0 45.0)
           (-30.0 30.0)
           (-30.0 30.0)
  end
  begin
     id 16
     name head
     direction 0.020792 0.998384 -0.0528868  
     length 1.61527  
     axis 0 0 0   XYZ
    dof rx ry rz
    limits (-20.0 45.0)
           (-30.0 30.0)
           (-30.0 30.0)
  end
  begin
     id 17 
     name lclavicle
     direction 0.967109 0.155462 -0.201325  
     length 3.59357  
     axis 0 0 0   XYZ
    dof ry rz
    limits (-20.0 10.0)
           (0.0 20.0)
  end
  begin
     id 18 
     name lhumerus
     direction 1 -4.48968e-011 2.38195e-027   
     length 5.38154   
     axis 180 -30 -90   XYZ
    dof rx ry rz
    limits (-60.0 90.0)
           (-90.0 90.0)
           (-90.0 90.0)
  end
  begin
     id 19
     name lradius
     direction 1 -4.48961e-011 4.85371e-027   
     length 3.33312   
     axis 180 -30 -90   XYZ
    dof rx
    limits (-10.0 170.0)
  end
  begin
     id 20
     name lwrist
     direction 1 -4.48961e-011 4.76515e-027   
     length 1.66656   
     axis -3.27502e-015 90 90   XYZ
    dof ry
    limits (-180.0 0.0)
 end
  begin
     id 21 
     name lhand
     direction 1 -4.48951e-011 9.53074e-027   
     length 0.710789   
     axis -6.08098e-015 90 90   XYZ
    dof rx rz
    limits (-90.0 90.0)
           (-45.0 45.0)
  end
  begin
     id 22 
     name lfingers
     direction 1 -4.48953e-011 1.90613e-026   
     length 0.573057   
     axis -1.21619e-014 90 90   XYZ
    dof rx
    limits (0.0 90.0)
  end
  begin
     id 23
     name lthumb
     direction 0.707107 -6.34973e-011 0.707107   
     length 0.822798   
     axis -90 45 -9.86923e-015   XYZ
    dof rx rz
    limits (-45.0 45.0)
           (-45.0 45.0)
  end
  begin
     id 24 
     name rclavicle
     direction -0.9585 0.265289 -0.104398   
     length 3.42039  
     axis 0 0 0   XYZ 
    dof ry rz
    limits (-10.0 20.0)
           (-20.0 0.0)
  end
  begin
     id 25 
     name rhumerus
     direction -1 -4.48977e-011 2.21478e-027  
     length 5.16954   
     axis 180 30 90   XYZ
    dof rx ry rz
    limits (-90.0 60.0)
           (-90.0 90.0)
           (-90.0 90.0)
  end
  begin
     id 26 
     name rradius
     direction -1 -4.48967e-011 5.63677e-027   
     length 3.38287   
     axis 180 30 90   XYZ
    dof rx
    limits (-10.0 170.0)
  end
  begin
     id 27 
     name rwrist
     direction -1 -4.48967e-011 4.76501e-027   
     length 1.69144   
     axis -3.27502e-015 -90 -90   XYZ
    dof ry
    limits (-180.0 0.0)
  end
  begin
     id 28
     name rhand
     direction -1 -4.48902e-011 9.53292e-027   
     length 0.817967   
     axis -6.08098e-015 -90 -90   XYZ
    dof rx rz
    limits (-90.0 90.0)
           (-45.0 45.0)
  end
  begin
     id 29
     name rfingers
     direction -1 -4.49012e-011 1.90561e-026   
     length 0.659466   
     axis -1.21619e-014 -90 -90   XYZ
    dof rx
    limits (0.0 90.0)
  end
  begin
     id 30
     name rthumb
     direction -0.707107 -6.34944e-011 0.707107   
     length 0.946865   
     axis -90 -45 9.86923e-015   XYZ
    dof rx rz
    limits (-45.0 45.0)
           (-45.0 45.0)
  end
:hierarchy
  begin
    root lhipjoint rhipjoint lowerback
    lhipjoint lfemur
    lfemur ltibia
    ltibia lfoot
    lfoot ltoes
    rhipjoint rfemur
    rfemur rtibia
    rtibia rfoot
    rfoot rtoes
    lowerback upperback
    upperback thorax
    thorax lowerneck lclavicle rclavicle
    lowerneck upperneck
    upperneck head
    lclavicle lhumerus
    lhumerus lradius
    lradius lwrist
    lwrist lhand lthumb
    lhand lfingers
    rclavicle rhumerus
    rhumerus rradius
    rradius rwrist
    rwrist rhand rthumb
    rhand rfingers
  end

#!OML:ASF F:\twosubjects\two\wednesday\Session 1\Justin1.ASF
:FULLY-SPECIFIED
:DEGREES
1415
root 6.28525 17.9846 19.0837 -179.39 130.662 -538.495
lowerback 7.36377 -0.0332761 -4.44872
upperback 3.04657 -0.276156 1.89763
thorax -0.940487 -0.160975 4.49167
lowerneck -18.9959 -4.05187 -13.9956
upperneck 22.3413 -3.21188 7.43087
head 10.7021 -1.74787 4.5577
rclavicle -3.21037e-014 -2.38542e-015
rhumerus 37.699 15.539 -58.1147
rradius 36.0947
rwrist 0.686563
rhand -20.4481 32.6608
rfingers 7.12502
rthumb 5.90717 2.76313
lclavicle -3.21037e-014 -2.38542e-015
lhumerus 29.9459 -13.6632 58.1913
lradius 44.4987
lwrist -19.3671
lhand -7.74289 34.7913
lfingers 7.12502
lthumb 18.1562 63.9639
rfemur -18.4056 -1.76329 6.80647
rtibia 48.6248
rfoot -8.11455 -14.2138
rtoes 20.0038
lfemur -14.9382 3.99006 -17.4726
ltibia 29.5542
lfoot -11.7773 2.15027
ltoes -20.337
1416
root 6.32916 18.0006 19.103 -179.487 130.672 -538.881
lowerback 7.04318 -0.0339807 -4.18518
upperback 3.12906 -0.244973 1.96413
thorax -0.682789 -0.151914 4.40589
lowerneck -19.5638 -4.03098 -13.96
upperneck 22.6228 -3.10598 7.39749
head 10.8997 -1.69909 4.56386
rclavicle 5.80451e-014 -4.37326e-015
rhumerus 37.8113 15.6896 -57.831
rradius 36.2161
rwrist 0.41468
rhand -20.4316 32.5745
rfingers 7.12502
rthumb 5.92311 2.67733
lclavicle 5.80451e-014 -4.37326e-015
lhumerus 29.9153 -13.3944 58.5605
lradius 44.7547
lwrist -19.6178
lhand -7.88502 34.7527
lfingers 7.12502
lthumb 18.0195 63.938
rfemur -19.2998 -1.35771 7.33403
rtibia 48.7422
rfoot -9.12744 -13.0615
rtoes 18.9648
lfemur -14.8129 3.50709 -17.2316
ltibia 29.2633
lfoot -11.8223 2.43946
ltoes -19.5573
1417
root 6.36316 18.0114 19.1326 -178.898 130.525 -538.424
lowerback 6.78612 -0.0912528 -4.5835
upperback 3.11246 -0.339819 1.80147
thorax -0.544341 -0.205872 4.46707
lowerneck -19.7416 -3.91737 -13.7557
upperneck 22.596 -3.00174 7.45626
head 10.9058 -1.62391 4.56741
rclavicle 6.42074e-014 2.46493e-014
rhumerus 37.8499 15.8971 -57.8158
rradius 36.2792
rwrist 0.338709
rhand -20.5942 32.5811
rfingers 7.12502
rthumb 5.76619 2.67959
lclavicle 6.42074e-014 2.46493e-014
lhumerus 29.9577 -13.5025 58.2192
lradius 45.0388
lwrist -19.1908
lhand -7.98472 34.8194
lfingers 7.12502
lthumb 17.9235 64.0135
rfemur -20.1432 -1.13417 7.26746
rtibia 48.6151
rfoot -10.1874 -11.9333
rtoes 18.9644
lfemur -14.9468 3.22263 -17.5689
ltibia 29.3173
lfoot -11.9351 2.49596
ltoes -20.6084
1418
root 6.3908 18.0077 19.1668 -178.626 130.417 -538.219
lowerback 6.85262 -0.110305 -4.80432
upperback 2.95374 -0.387452 1.70874
thorax -0.738687 -0.223255 4.5005
lowerneck -19.4836 -3.80277 -13.7235
upperneck 22.542 -2.90421 7.52354
head 10.824 -1.57044 4.60045
rclavicle -7.01213e-014 2.74323e-014
rhumerus 37.5861 16.0728 -57.9602
rradius 36.3458
rwrist 0.589353
rhand -20.7752 32.889
rfingers 7.12502
rthumb 5.59141 2.98277
lclavicle -7.01213e-014 2.74323e-014
lhumerus 29.9493 -13.8241 57.9323
lradius 45.0451
lwrist -18.8133
lhand -8.25557 34.4553
lfingers 7.12502
lthumb 17.6629 63.673
rfemur -20.7661 -0.823217 7.43474
rtibia 48.2229
rfoot -10.8536 -10.8959
rtoes 17.8073
lfemur -15.0008 3.17106 -17.6867
ltibia 29.4693
lfoot -12.017 2.47482
ltoes -22.7793
1419
root 6.42297 17.9981 19.1953 -179.274 130.561 -539.099
lowerback 7.00841 -0.04675 -4.25379
upperback 2.83944 -0.27428 1.84561
thorax -0.960606 -0.155627 4.32435
lowerneck -19.4917 -3.69 -13.6208
upperneck 22.6843 -2.75109 7.42214
head 10.856 -1.50635 4.57302
rclavicle -5.84924e-014 5.96354e-015
rhumerus 37.3494 16.2964 -57.8974
rradius 36.4927
rwrist 0.631019
rhand -20.8352 33.045
rfingers 7.12502
rthumb 5.53343 3.13721
lclavicle -5.84924e-014 5.96354e-015
lhumerus 29.7614 -13.8436 58.1649
lradius 45.0941
lwrist -19.0367
lhand -8.47479 34.136
lfingers 7.12502
lthumb 17.452 63.3726
rfemur -21.2729 -0.147802 8.35807
rtibia 47.5853
rfoot -11.2072 -9.78169
rtoes 15.2607
lfemur -14.938 3.04557 -17.0143
ltibia 29.676
lfoot -12.2176 2.69644
ltoes -23.3333
1420
root 6.46969 17.9984 19.2137 -179.505 130.771 -539.262
lowerback 7.22524 -0.0031914 -4.00805
upperback 2.8015 -0.209849 1.76604
thorax -1.12942 -0.116799 4.09881
lowerneck -19.6685 -3.50517 -13.2383
upperneck 22.7444 -2.54176 7.24397
head 10.8764 -1.39794 4.47625
rclavicle 1.97791e-014 0
rhumerus 37.2462 16.6661 -57.9099
rradius 36.6433
rwrist 0.516718
rhand -20.9092 33.0083
rfingers 7.12502
rthumb 5.46201 3.09868
lclavicle 1.97791e-014 0
lhumerus 29.6063 -13.7808 58.154
lradius 45.1313
lwrist -19.1624
lhand -8.52522 34.0678
lfingers 7.12502
lthumb 17.4034 63.3087
rfemur -21.5706 0.434235 8.63194
rtibia 46.7492
rfoot -11.4589 -8.31066
rtoes 11.2197
lfemur -14.8304 2.59475 -16.9288
ltibia 30.0771
lfoot -12.4771 3.27976
ltoes -23.3958
1421
root 6.51693 17.9939 19.2263 -179.185 130.916 -538.638
lowerback 7.50762 -0.00989537 -4.21662
upperback 2.7833 -0.249207 1.50108
thorax -1.30083 -0.131861 3.94653
lowerneck -19.7187 -3.27333 -12.8193
upperneck 22.615 -2.30227 7.0946
head 10.7997 -1.26695 4.3825
rclavicle -1.10524e-013 1.23246e-014
rhumerus 37.1497 17.0906 -58.0632
rradius 36.9192
rwrist 0.56029
rhand -20.908 32.9231
rfingers 7.12502
rthumb 5.4632 3.01349
lclavicle -1.10524e-013 1.23246e-014
lhumerus 29.5826 -13.6798 57.9393
lradius 44.9921
lwrist -19.1972
lhand -8.71757 33.7053
lfingers 7.12502
lthumb 17.2183 62.9625
rfemur -21.756 0.894537 8.31561
rtibia 45.7223
rfoot -11.6671 -6.99048
rtoes 7.69866
lfemur -14.7421 1.95279 -17.4253
ltibia 30.6273
lfoot -12.8305 3.92168
ltoes -23.4054
1422
root 6.54738 17.9701 19.2489 -179.617 130.951 -539.156
lowerback 7.48802 -0.026016 -3.86943
upperback 2.92444 -0.240191 1.56958
thorax -1.14713 -0.131289 3.81959
lowerneck -19.7566 -3.22778 -12.9828
upperneck 22.3306 -2.2194 7.25208
head 10.6959 -1.2183 4.47232
rclavicle -1.1445e-013 2.90226e-014
rhumerus 37.3245 17.373 -57.7194
rradius 37.3842
rwrist 0.260529
rhand -20.6533 33.4358
rfingers 7.12502
rthumb 5.70909 3.53266
lclavicle -1.1445e-013 2.90226e-014
lhumerus 29.7206 -13.3721 58.0044
lradius 44.9181
lwrist -19.5226
lhand -8.93479 33.3389
lfingers 7.12502
lthumb 17.0092 62.6142
rfemur -22.0374 1.56875 8.89894
rtibia 44.599
rfoot -12.1695 -5.89424
rtoes 8.07968
lfemur -14.7176 1.6128 -17.012
ltibia 30.9976
lfoot -13.1545 4.13748
ltoes -23.4759
1423
root 6.57063 17.9617 19.2839 -180.77 130.875 -540.85
lowerback 7.30015 -0.111777 -2.93954
upperback 3.03145 -0.274309 1.97585
thorax -0.934229 -0.149723 3.7161
lowerneck -20.0341 -3.19714 -13.3052
upperneck 22.3065 -2.07295 7.39865
head 10.7285 -1.15783 4.60332
rclavicle 1.15792e-014 1.11319e-014
rhumerus 37.7401 17.7817 -57.0761
rradius 37.691
rwrist -0.209472
rhand -20.3493 34.1317
rfingers 7.12502
rthumb 6.00259 4.23669
lclavicle 1.15792e-014 1.11319e-014
lhumerus 29.6853 -13.0907 57.9949
lradius 45.1183
lwrist -19.6747
lhand -8.84663 33.686
lfingers 7.12502
lthumb 17.0941 62.9539
rfemur -22.4596 2.43147 10.3312
rtibia 43.3863
rfoot -12.1857 -4.72286
rtoes 7.97722
lfemur -14.8513 1.6236 -15.7105
ltibia 31.1992
lfoot -13.3168 3.94221
ltoes -23.192
